{
	"asset":{
		"generator":"Khronos glTF Blender I/O v4.0.44",
		"version":"2.0"
	},
	"scene":0,
	"scenes":[
		{
			"name":"Scene",
			"nodes":[
				0,
				1,
				2
			]
		}
	],
	"nodes":[
		{
			"mesh":0,
			"name":"waylight"
		},
		{
			"mesh":1,
			"name":"terminal",
			"translation":[
				0,
				1.0342859029769897,
				-0.11956679075956345
			]
		},
		{
			"mesh":2,
			"name":"bulb",
			"translation":[
				0,
				2.3337810039520264,
				0
			]
		}
	],
	"materials":[
		{
			"doubleSided":true,
			"name":"Material.002",
			"pbrMetallicRoughness":{
				"baseColorTexture":{
					"index":0
				},
				"metallicFactor":0
			}
		},
		{
			"doubleSided":true,
			"emissiveFactor":[
				1,
				1,
				1
			],
			"emissiveTexture":{
				"index":1
			},
			"name":"Material.003",
			"pbrMetallicRoughness":{
				"baseColorTexture":{
					"index":2
				},
				"metallicFactor":0
			}
		},
		{
			"doubleSided":true,
			"name":"light",
			"pbrMetallicRoughness":{
				"baseColorFactor":[
					0.8001892566680908,
					0,
					0.00607207790017128,
					1
				],
				"roughnessFactor":0
			}
		}
	],
	"meshes":[
		{
			"name":"Cylinder.001",
			"primitives":[
				{
					"attributes":{
						"POSITION":0,
						"NORMAL":1,
						"TEXCOORD_0":2
					},
					"indices":3,
					"material":0
				}
			]
		},
		{
			"name":"Cube.001",
			"primitives":[
				{
					"attributes":{
						"POSITION":4,
						"NORMAL":5,
						"TEXCOORD_0":6
					},
					"indices":7,
					"material":1
				}
			]
		},
		{
			"name":"Sphere",
			"primitives":[
				{
					"attributes":{
						"POSITION":8,
						"NORMAL":9,
						"TEXCOORD_0":10
					},
					"indices":11,
					"material":2
				}
			]
		}
	],
	"textures":[
		{
			"sampler":0,
			"source":0
		},
		{
			"sampler":0,
			"source":1
		},
		{
			"sampler":0,
			"source":1
		}
	],
	"images":[
		{
			"mimeType":"image/png",
			"name":"tex4.png",
			"uri":"tex4.png"
		},
		{
			"mimeType":"image/png",
			"name":"tex5.png",
			"uri":"tex5.png"
		}
	],
	"accessors":[
		{
			"bufferView":0,
			"componentType":5126,
			"count":96,
			"max":[
				0.3063729703426361,
				2.3123528957366943,
				0.35376906394958496
			],
			"min":[
				-0.3063729703426361,
				-0.405008465051651,
				-0.35376906394958496
			],
			"type":"VEC3"
		},
		{
			"bufferView":1,
			"componentType":5126,
			"count":96,
			"type":"VEC3"
		},
		{
			"bufferView":2,
			"componentType":5126,
			"count":96,
			"type":"VEC2"
		},
		{
			"bufferView":3,
			"componentType":5123,
			"count":168,
			"type":"SCALAR"
		},
		{
			"bufferView":4,
			"componentType":5126,
			"count":52,
			"max":[
				0.0913553312420845,
				0.11527316272258759,
				0.08113741129636765
			],
			"min":[
				-0.0913553312420845,
				-0.11527339369058609,
				-0.05022301524877548
			],
			"type":"VEC3"
		},
		{
			"bufferView":5,
			"componentType":5126,
			"count":52,
			"type":"VEC3"
		},
		{
			"bufferView":6,
			"componentType":5126,
			"count":52,
			"type":"VEC2"
		},
		{
			"bufferView":7,
			"componentType":5123,
			"count":84,
			"type":"SCALAR"
		},
		{
			"bufferView":8,
			"componentType":5126,
			"count":60,
			"max":[
				0.01997576281428337,
				0.026634350419044495,
				0.023066025227308273
			],
			"min":[
				-0.01997576653957367,
				-0.026634350419044495,
				-0.023066027089953423
			],
			"type":"VEC3"
		},
		{
			"bufferView":9,
			"componentType":5126,
			"count":60,
			"type":"VEC3"
		},
		{
			"bufferView":10,
			"componentType":5126,
			"count":60,
			"type":"VEC2"
		},
		{
			"bufferView":11,
			"componentType":5123,
			"count":72,
			"type":"SCALAR"
		}
	],
	"bufferViews":[
		{
			"buffer":0,
			"byteLength":1152,
			"byteOffset":0,
			"target":34962
		},
		{
			"buffer":0,
			"byteLength":1152,
			"byteOffset":1152,
			"target":34962
		},
		{
			"buffer":0,
			"byteLength":768,
			"byteOffset":2304,
			"target":34962
		},
		{
			"buffer":0,
			"byteLength":336,
			"byteOffset":3072,
			"target":34963
		},
		{
			"buffer":0,
			"byteLength":624,
			"byteOffset":3408,
			"target":34962
		},
		{
			"buffer":0,
			"byteLength":624,
			"byteOffset":4032,
			"target":34962
		},
		{
			"buffer":0,
			"byteLength":416,
			"byteOffset":4656,
			"target":34962
		},
		{
			"buffer":0,
			"byteLength":168,
			"byteOffset":5072,
			"target":34963
		},
		{
			"buffer":0,
			"byteLength":720,
			"byteOffset":5240,
			"target":34962
		},
		{
			"buffer":0,
			"byteLength":720,
			"byteOffset":5960,
			"target":34962
		},
		{
			"buffer":0,
			"byteLength":480,
			"byteOffset":6680,
			"target":34962
		},
		{
			"buffer":0,
			"byteLength":144,
			"byteOffset":7160,
			"target":34963
		}
	],
	"samplers":[
		{
			"magFilter":9728,
			"minFilter":9984
		}
	],
	"buffers":[
		{
			"byteLength":7304,
			"uri":"guidetower.bin"
		}
	]
}
