# Blender 4.0.1
# www.blender.org
mtllib rock03.mtl
o rock.002
v -0.781322 -0.612267 0.506849
v -0.161638 -1.041705 -0.907485
v -0.495822 0.915042 -0.619939
v 0.914083 0.495724 0.659984
v 0.543121 0.759476 -0.810785
v 0.949386 -1.017631 -0.467883
v 0.764497 -1.126039 0.652516
v 0.057922 1.030180 0.034677
v -0.717840 -1.073959 -0.354280
v -0.774099 0.201856 -0.174009
v -0.064165 0.066552 0.993403
v -0.014358 1.015791 -1.043325
v 0.419910 -1.113026 -0.767481
v -0.004200 -1.041992 0.679684
v 0.839290 -1.112975 -0.039445
v 1.111835 0.892582 -0.260040
v 1.169775 -0.344122 -0.047445
v 1.012982 -0.440193 0.916239
v 0.218787 -0.172388 -1.052412
v -0.439472 0.545902 0.385796
v 0.314812 -0.467387 1.067692
v 0.082716 -1.277045 -0.202270
v 0.454201 1.247102 -0.420644
v 1.144972 -0.630878 0.269200
v 0.863031 -0.217989 -0.640756
v -0.528559 -0.038965 -0.796195
v -0.281135 1.003790 -0.352261
v 0.472617 0.793230 0.354548
v -0.872919 -0.909832 0.093783
v -0.389635 -1.057897 -0.641755
v -0.908471 -0.204877 0.182908
v -0.678152 0.618308 -0.456753
v -0.536797 -0.271758 0.879694
v 0.432177 0.319854 0.898366
v -0.297637 0.965726 -0.832446
v 0.334641 0.893163 -0.959629
v 0.090626 -1.073386 -0.824417
v 0.716472 -1.069920 -0.606190
v -0.431101 -0.879062 0.639182
v 0.434365 -1.252429 0.775006
v 0.934055 -1.121008 -0.309116
v 0.800324 -1.120691 0.306734
v 1.002389 0.720217 0.202561
v 0.844263 0.839277 -0.647282
v 1.180758 0.089617 0.314083
v 1.086803 -0.743122 -0.327570
v 0.994030 0.005378 0.856597
v 0.872014 -0.806869 0.756697
v -0.024109 -0.681128 -1.052155
v 0.426419 0.362459 -0.917091
v -0.284141 0.343754 0.665686
v -0.203421 0.739228 0.220450
v -0.738965 0.446035 0.183223
v 0.138824 -0.784200 1.051086
v 0.628734 -0.426588 1.043641
v 0.162106 -0.242615 1.074495
v -0.347425 -1.268313 -0.248343
v 0.225011 -1.292209 -0.551258
v 0.518178 -1.393931 -0.125036
v -0.009094 -1.205736 0.223611
v 0.300634 1.169873 -0.220738
v 0.718376 1.080372 -0.312868
v 0.264887 1.218273 -0.721719
v 1.225935 -0.505077 0.155799
v 1.175397 -0.537780 0.554790
v 1.108389 -0.898595 0.134090
v 0.563749 -0.197604 -0.863019
v 0.950431 0.318848 -0.388596
v 1.124008 -0.250869 -0.371132
v 0.637661 -0.722897 -0.761658
v -0.758439 0.078446 -0.494163
v -0.262770 0.496773 -0.899007
v -0.193276 -0.120589 -1.009669
v -0.667709 -0.567910 -0.547434
v -0.612339 0.040021 0.461631
v 0.092607 0.705656 0.692039
v -0.456618 0.658486 -0.155861
v -0.190951 -0.548710 0.931367
v 0.550759 -0.841565 0.996832
v 0.586352 -0.041953 1.038848
v -0.455816 -1.120617 0.199863
v -0.149204 -1.273334 -0.619274
v 0.639967 -1.369951 -0.489589
v 0.426171 -1.269833 0.266227
v -0.070160 1.343589 -0.579273
v 0.667258 0.980989 0.048397
v 0.606169 1.103352 -0.703319
v 1.130857 -0.832356 -0.107645
v 1.218795 -0.197773 0.510807
v 1.008763 -0.837826 0.426113
v 0.322402 -0.701843 -0.878320
v 0.698929 0.341511 -0.675027
v 1.203630 0.265980 -0.041272
v 0.876563 -0.719775 -0.531568
v -0.840961 -0.416820 -0.191384
v -0.502741 0.547138 -0.686860
v 0.070602 0.421959 -1.094037
v -0.399373 -0.650797 -0.863227
vn -0.7630 0.2393 0.6004
vn -0.7372 0.4710 0.4845
vn -0.6016 0.3156 0.7338
vn -0.9649 0.2513 -0.0769
vn 0.0512 0.7514 0.6579
vn -0.1058 0.9850 0.1365
vn -0.5388 0.5122 0.6689
vn -0.0505 0.4361 0.8985
vn -0.7175 0.5822 0.3825
vn -0.7319 0.4901 0.4734
vn -0.5404 0.8202 0.1876
vn -0.5299 0.7402 0.4138
vn -0.5688 -0.3865 0.7260
vn -0.2744 -0.5174 0.8105
vn -0.2281 -0.1839 0.9561
vn -0.1935 -0.0589 0.9793
vn 0.4648 -0.5190 0.7173
vn 0.6004 -0.2001 0.7743
vn 0.1139 -0.1150 0.9868
vn -0.4449 -0.6463 0.6199
vn 0.2867 0.3964 0.8721
vn -0.0779 0.3318 0.9401
vn 0.0737 0.0205 0.9971
vn 0.3161 0.1391 0.9385
vn -0.6465 -0.6526 0.3952
vn -0.4764 -0.8660 0.1523
vn -0.1941 -0.9447 0.2644
vn -0.3537 -0.8111 0.4659
vn -0.3252 -0.8479 -0.4186
vn -0.5471 -0.6638 -0.5099
vn 0.0793 -0.7586 -0.6467
vn -0.0206 -0.9998 0.0025
vn -0.2489 -0.9667 -0.0595
vn -0.0425 -0.7501 -0.6599
vn 0.7025 -0.4062 -0.5844
vn 0.6038 -0.7617 0.2349
vn -0.4390 -0.8977 0.0378
vn -0.1569 -0.9790 0.1301
vn 0.3683 -0.9295 0.0207
vn 0.3658 -0.9303 0.0259
vn -0.3116 0.9480 -0.0644
vn -0.3398 0.6592 0.6708
vn 0.3730 0.9257 0.0628
vn -0.5163 0.6690 -0.5347
vn 0.2504 0.8491 0.4651
vn 0.4393 0.8028 0.4031
vn 0.2612 0.9206 0.2902
vn 0.0551 0.8352 0.5472
vn 0.4268 0.1975 -0.8825
vn 0.2449 0.6062 -0.7566
vn 0.5630 0.8186 -0.1136
vn 0.4369 0.7996 -0.4120
vn 0.9129 -0.3767 -0.1571
vn 0.9750 -0.0511 -0.2160
vn 0.9861 -0.1590 0.0481
vn 0.7001 -0.6628 0.2658
vn 0.8915 0.2862 0.3513
vn 0.8606 0.1034 0.4987
vn 0.9870 -0.1110 0.1159
vn 0.9928 0.0608 -0.1031
vn 0.8311 -0.4045 0.3817
vn 0.6702 -0.6472 0.3633
vn 0.8579 -0.5083 0.0743
vn 0.7403 -0.4865 0.4640
vn 0.2313 -0.4370 -0.8692
vn 0.4290 -0.2053 -0.8797
vn 0.3362 -0.1326 -0.9324
vn 0.1394 -0.2268 -0.9639
vn 0.4829 0.0339 -0.8750
vn 0.6643 0.0049 -0.7474
vn 0.7325 -0.1772 -0.6572
vn 0.5970 0.1266 -0.7922
vn 0.7163 0.1977 -0.6692
vn 0.7981 -0.0910 -0.5957
vn 0.9307 0.3002 0.2089
vn 0.9865 -0.0532 -0.1548
vn 0.4902 -0.2612 -0.8315
vn 0.6881 -0.1365 -0.7126
vn 0.6851 -0.1154 -0.7193
vn 0.5190 -0.0555 -0.8530
vn -0.9587 -0.0828 0.2722
vn -0.9652 0.1110 -0.2369
vn -0.9104 -0.0946 -0.4028
vn -0.9510 -0.1062 -0.2902
vn -0.9823 0.1535 -0.1072
vn -0.7692 0.1283 -0.6260
vn -0.6543 0.0584 -0.7540
vn -0.7572 0.1519 -0.6353
vn -0.5183 0.0940 -0.8500
vn -0.5047 0.0015 -0.8633
vn 0.4460 0.0054 -0.8950
vn -0.1148 -0.0979 -0.9886
vn -0.6368 -0.2191 -0.7393
vn -0.7707 -0.0937 -0.6303
vn -0.4531 -0.0694 -0.8888
vn -0.6988 -0.3547 -0.6212
vn -0.8989 0.2575 0.3544
vn -0.5055 0.4611 0.7293
vn -0.7009 0.3340 0.6302
vn -0.7531 0.1958 0.6281
vn 0.3942 0.6785 0.6199
vn -0.1977 0.6475 0.7360
vn -0.4436 0.8303 0.3375
vn -0.4994 0.4667 0.7300
vn -0.6633 0.6298 0.4042
vn -0.7773 0.5524 -0.3011
vn -0.4274 0.8823 0.1969
vn -0.7288 0.5786 0.3662
vn -0.4376 -0.3959 0.8073
vn -0.5977 -0.5322 0.5996
vn -0.2742 0.1022 0.9562
vn -0.3610 -0.0196 0.9324
vn 0.5715 -0.4222 0.7036
vn 0.2631 -0.4682 0.8435
vn 0.0924 -0.1287 0.9874
vn 0.0475 -0.4849 0.8733
vn 0.3180 0.4579 0.8302
vn 0.0402 0.2809 0.9589
vn 0.0742 0.0202 0.9970
vn 0.4021 0.0557 0.9139
vn -0.4800 -0.6578 0.5803
vn -0.4944 -0.8540 0.1619
vn -0.0369 -0.9869 0.1573
vn -0.1935 -0.9227 0.3334
vn -0.6157 -0.7204 -0.3193
vn 0.1090 -0.7725 -0.6256
vn 0.0154 -0.7767 -0.6297
vn -0.0542 -0.9983 0.0213
vn -0.1656 -0.9789 -0.1197
vn 0.4798 -0.4214 -0.7696
vn 0.4448 -0.7696 -0.4581
vn 0.5866 -0.7971 0.1435
vn -0.1693 -0.9270 0.3346
vn -0.2898 -0.9298 0.2268
vn 0.5551 -0.7463 0.3672
vn 0.3680 -0.9295 0.0237
vn -0.8531 0.5216 -0.0120
vn -0.3120 0.9265 0.2102
vn -0.3241 0.9392 0.1139
vn 0.0636 0.8187 -0.5707
vn 0.2797 0.7289 0.6249
vn 0.3790 0.8771 0.2949
vn 0.2877 0.7981 0.5294
vn 0.0571 0.8521 0.5203
vn 0.6283 0.1248 -0.7679
vn 0.3794 0.5980 -0.7060
vn 0.3195 0.9029 -0.2874
vn 0.7493 0.6379 -0.1778
vn 0.8715 -0.3681 -0.3239
vn 0.9546 -0.0397 -0.2952
vn 0.8938 -0.4085 0.1849
vn 0.6699 -0.7295 -0.1376
vn 0.8651 0.3562 0.3531
vn 0.9042 -0.0607 0.4227
vn 0.8661 -0.4951 0.0691
vn 0.9758 0.1745 -0.1314
vn 0.7881 -0.6112 0.0722
vn 0.6024 -0.7966 0.0500
vn 0.8806 -0.3039 0.3637
vn 0.7416 -0.5662 0.3598
vn 0.3987 -0.3704 -0.8389
vn 0.4611 -0.1944 -0.8658
vn 0.5915 -0.0717 -0.8031
vn 0.3318 -0.1714 -0.9276
vn 0.6652 0.0916 -0.7410
vn 0.4945 -0.0962 -0.8638
vn 0.8248 -0.1077 -0.5551
vn 0.7462 0.1796 -0.6410
vn 0.8030 0.2278 -0.5507
vn 0.9200 0.2423 0.3080
vn 0.8935 0.3102 0.3247
vn 0.9978 -0.0557 0.0366
vn 0.6856 -0.1622 -0.7097
vn 0.7040 -0.1328 -0.6976
vn 0.9824 -0.0888 -0.1645
vn 0.6973 0.0173 -0.7166
vn -0.9865 -0.0294 -0.1613
vn -0.9898 0.1095 -0.0906
vn -0.8060 -0.0647 -0.5883
vn -0.9081 -0.0677 -0.4132
vn -0.7615 0.1568 -0.6290
vn -0.7405 0.1337 -0.6587
vn -0.6034 0.0679 -0.7945
vn -0.6327 0.1689 -0.7558
vn -0.4854 0.1010 -0.8684
vn 0.2713 0.1204 -0.9549
vn 0.5971 0.0390 -0.8012
vn 0.4514 0.0502 -0.8909
vn -0.7612 -0.3239 -0.5618
vn -0.5408 -0.0221 -0.8409
vn -0.0973 0.0460 -0.9942
vn -0.4540 -0.1772 -0.8732
vt 0.485071 0.500097
vt 0.478178 0.456375
vt 0.506876 0.457036
vt 0.460458 0.501647
vt 0.448586 0.446499
vt 0.469789 0.418752
vt 0.499120 0.416556
vt 0.536186 0.440252
vt 0.538824 0.379087
vt 0.568389 0.400569
vt 0.391195 0.383478
vt 0.379834 0.449115
vt 0.342725 0.412443
vt 0.453699 0.391316
vt 0.418419 0.419916
vt 0.419867 0.480492
vt 0.496766 0.328852
vt 0.482139 0.374955
vt 0.473787 0.337990
vt 0.505744 0.406251
vt 0.506876 0.360887
vt 0.436816 0.356385
vt 0.448197 0.517157
vt 0.407237 0.520315
vt 0.425277 0.513752
vt 0.378355 0.508073
vt 0.394548 0.498974
vt 0.337650 0.507137
vt 0.354087 0.519452
vt 0.363720 0.529749
vt 0.329826 0.494030
vt 0.351029 0.497523
vt 0.390823 0.528582
vt 0.460528 0.613766
vt 0.453499 0.559204
vt 0.460732 0.593799
vt 0.326446 0.452324
vt 0.359346 0.476233
vt 0.318570 0.481387
vt 0.517512 0.477804
vt 0.559614 0.520874
vt 0.522883 0.500001
vt 0.339613 0.540385
vt 0.320111 0.586651
vt 0.314757 0.544531
vt 0.343346 0.578525
vt 0.338045 0.623728
vt 0.321175 0.640286
vt 0.309197 0.601757
vt 0.373842 0.551532
vt 0.401566 0.556127
vt 0.374293 0.576681
vt 0.408637 0.579778
vt 0.389304 0.608463
vt 0.363056 0.613231
vt 0.375785 0.652788
vt 0.420832 0.608257
vt 0.403817 0.644671
vt 0.429691 0.636710
vt 0.421979 0.668046
vt 0.402312 0.672976
vt 0.355392 0.660213
vt 0.328282 0.683520
vt 0.380513 0.686031
vt 0.359024 0.699238
vt 0.483266 0.307020
vt 0.421092 0.325576
vt 0.462718 0.298462
vt 0.433661 0.288648
vt 0.623209 0.288648
vt 0.665879 0.316723
vt 0.637154 0.324304
vt 0.345404 0.365962
vt 0.345674 0.321637
vt 0.381236 0.347407
vt 0.384130 0.315510
vt 0.662311 0.592036
vt 0.695101 0.585878
vt 0.682477 0.616569
vt 0.661248 0.565546
vt 0.695764 0.555614
vt 0.715956 0.579547
vt 0.713775 0.609905
vt 0.710214 0.648389
vt 0.580636 0.714485
vt 0.549114 0.720463
vt 0.550070 0.711035
vt 0.626072 0.713997
vt 0.584869 0.729926
vt 0.688161 0.322547
vt 0.688161 0.288648
vt 0.697325 0.314985
vt 0.435855 0.683945
vt 0.320159 0.405818
vt 0.309979 0.435058
vt 0.639096 0.745803
vt 0.624274 0.732763
vt 0.664172 0.732596
vt 0.676394 0.709938
vt 0.399296 0.699228
vt 0.375176 0.703132
vt 0.417777 0.695123
vt 0.425826 0.696530
vt 0.416226 0.709222
vt 0.392426 0.710735
vt 0.435324 0.549782
vt 0.572444 0.599558
vt 0.541952 0.636509
vt 0.528072 0.603978
vt 0.586663 0.632767
vt 0.552494 0.664613
vt 0.442863 0.584353
vt 0.624330 0.596661
vt 0.639753 0.626478
vt 0.656641 0.656554
vt 0.601790 0.663733
vt 0.617319 0.694288
vt 0.674052 0.690384
vt 0.715956 0.665634
vt 0.534652 0.691201
vt 0.517512 0.665501
vt 0.568494 0.690511
vt 0.549692 0.504448
vt 0.571183 0.457897
vt 0.596197 0.410677
vt 0.608643 0.469174
vt 0.594058 0.516747
vt 0.592836 0.360555
vt 0.611818 0.331272
vt 0.619492 0.364906
vt 0.647201 0.366894
vt 0.631330 0.418596
vt 0.663297 0.422695
vt 0.677525 0.370447
vt 0.613092 0.561668
vt 0.489577 0.624401
vt 0.489577 0.663113
vt 0.453499 0.653516
vt 0.631167 0.511669
vt 0.646268 0.473566
vt 0.677525 0.472719
vt 0.662345 0.507450
vt 0.497368 0.602157
vt 0.471368 0.572731
vt 0.497368 0.540385
vt 0.576973 0.356146
vt 0.460732 0.540385
vt 0.436939 0.659070
vt 0.598080 0.322338
vt 0.411687 0.304047
vt 0.704789 0.531510
vt 0.659323 0.531894
vt 0.442863 0.693932
vt 0.309197 0.458337
vt 0.695478 0.299009
vt 0.569550 0.569252
s 0
usemtl Material.001
f 1/1/1 75/2/1 31/3/1
f 33/4/2 51/5/2 75/2/2
f 75/2/3 20/6/3 53/7/3
f 31/8/4 53/9/4 10/10/4
f 28/11/5 34/12/5 4/13/5
f 28/11/6 52/14/6 76/15/6
f 76/15/7 20/6/7 51/5/7
f 76/15/8 11/16/8 34/12/8
f 3/17/9 77/18/9 27/19/9
f 10/20/10 77/18/10 32/21/10
f 77/18/11 20/6/11 52/14/11
f 27/19/12 52/14/12 8/22/12
f 39/23/13 33/4/13 1/1/13
f 14/24/14 78/25/14 39/23/14
f 78/25/15 21/26/15 56/27/15
f 78/25/16 11/16/16 33/4/16
f 7/28/17 79/29/17 40/30/17
f 48/31/18 55/32/18 79/29/18
f 79/29/19 21/26/19 54/33/19
f 40/34/20 54/35/20 14/36/20
f 34/12/21 47/37/21 4/13/21
f 34/12/22 56/27/22 80/38/22
f 80/38/23 21/26/23 55/32/23
f 47/37/24 55/32/24 18/39/24
f 1/40/25 81/41/25 39/42/25
f 9/43/26 81/44/26 29/45/26
f 57/46/27 60/47/27 81/44/27
f 81/44/28 14/48/28 39/49/28
f 30/50/29 57/46/29 9/43/29
f 2/51/30 82/52/30 30/50/30
f 37/53/31 58/54/31 82/52/31
f 82/52/32 22/55/32 57/46/32
f 58/54/33 59/56/33 22/55/33
f 13/57/34 83/58/34 58/54/34
f 38/59/35 41/60/35 83/58/35
f 59/56/36 41/60/36 15/61/36
f 14/48/37 84/62/37 40/63/37
f 22/55/38 84/62/38 60/47/38
f 84/62/39 15/61/39 42/64/39
f 84/62/40 7/65/40 40/63/40
f 27/19/41 35/66/41 3/17/41
f 27/19/42 61/67/42 85/68/42
f 61/67/43 63/69/43 85/68/43
f 85/70/44 12/71/44 35/72/44
f 43/73/45 28/11/45 4/13/45
f 16/74/46 86/75/46 43/73/46
f 62/76/47 61/67/47 86/75/47
f 86/75/48 8/22/48 28/11/48
f 5/77/49 87/78/49 44/79/49
f 36/80/50 63/81/50 87/78/50
f 87/78/51 23/82/51 62/83/51
f 44/79/52 62/83/52 16/84/52
f 46/85/53 41/86/53 6/87/53
f 17/88/54 88/89/54 46/85/54
f 88/90/55 24/91/55 66/92/55
f 88/93/56 15/61/56 41/60/56
f 47/37/57 45/94/57 4/13/57
f 18/39/58 89/95/58 47/37/58
f 65/96/59 64/97/59 89/98/59
f 89/98/60 17/88/60 45/99/60
f 7/65/61 90/100/61 48/101/61
f 42/64/62 66/102/62 90/100/62
f 90/100/63 24/103/63 65/104/63
f 48/101/64 65/104/64 18/105/64
f 49/106/65 37/53/65 2/51/65
f 19/107/66 91/108/66 49/109/66
f 67/110/67 70/111/67 91/108/67
f 91/112/68 13/57/68 37/53/68
f 50/113/69 67/110/69 19/107/69
f 5/77/70 92/114/70 50/113/70
f 44/79/71 68/115/71 92/114/71
f 92/114/72 25/116/72 67/110/72
f 68/115/73 69/117/73 25/116/73
f 16/84/74 93/118/74 68/115/74
f 43/119/75 45/99/75 93/118/75
f 93/118/76 17/88/76 69/117/76
f 70/111/77 38/120/77 13/121/77
f 25/116/78 94/122/78 70/111/78
f 69/117/79 46/85/79 94/122/79
f 94/122/80 6/87/80 38/120/80
f 31/8/81 29/123/81 1/40/81
f 10/10/82 95/124/82 31/8/82
f 71/125/83 74/126/83 95/124/83
f 95/124/84 9/127/84 29/123/84
f 32/128/85 71/125/85 10/10/85
f 3/129/86 96/130/86 32/128/86
f 35/72/87 72/131/87 96/130/87
f 96/130/88 26/132/88 71/125/88
f 72/131/89 73/133/89 26/132/89
f 12/71/90 97/134/90 72/131/90
f 36/80/91 50/113/91 97/135/91
f 97/136/92 19/137/92 73/138/92
f 74/126/93 30/139/93 9/127/93
f 26/132/94 98/140/94 74/126/94
f 73/133/95 49/141/95 98/140/95
f 98/140/96 2/142/96 30/139/96
f 1/143/97 33/144/97 75/145/97
f 33/4/98 11/16/98 51/5/98
f 75/2/99 51/5/99 20/6/99
f 31/3/100 75/2/100 53/7/100
f 28/11/101 76/15/101 34/12/101
f 28/11/102 8/22/102 52/14/102
f 76/15/103 52/14/103 20/6/103
f 76/15/104 51/5/104 11/16/104
f 3/17/105 32/21/105 77/18/105
f 10/10/106 53/9/106 77/146/106
f 77/18/107 53/7/107 20/6/107
f 27/19/108 77/18/108 52/14/108
f 39/23/109 78/25/109 33/4/109
f 14/36/110 54/35/110 78/147/110
f 78/25/111 54/33/111 21/26/111
f 78/25/112 56/27/112 11/16/112
f 7/28/113 48/31/113 79/29/113
f 48/31/114 18/39/114 55/32/114
f 79/29/115 55/32/115 21/26/115
f 40/30/116 79/29/116 54/33/116
f 34/12/117 80/38/117 47/37/117
f 34/12/118 11/16/118 56/27/118
f 80/38/119 56/27/119 21/26/119
f 47/37/120 80/38/120 55/32/120
f 1/40/121 29/123/121 81/41/121
f 9/43/122 57/46/122 81/44/122
f 57/46/123 22/55/123 60/47/123
f 81/44/124 60/47/124 14/48/124
f 30/50/125 82/52/125 57/46/125
f 2/51/126 37/53/126 82/52/126
f 37/53/127 13/57/127 58/54/127
f 82/52/128 58/54/128 22/55/128
f 58/54/129 83/58/129 59/56/129
f 13/57/130 38/59/130 83/58/130
f 38/59/131 6/148/131 41/60/131
f 59/56/132 83/58/132 41/60/132
f 14/48/133 60/47/133 84/62/133
f 22/55/134 59/56/134 84/62/134
f 84/62/135 59/56/135 15/61/135
f 84/62/136 42/64/136 7/65/136
f 27/149/137 85/70/137 35/72/137
f 27/19/138 8/22/138 61/67/138
f 61/67/139 23/150/139 63/69/139
f 85/151/140 63/81/140 12/152/140
f 43/73/141 86/75/141 28/11/141
f 16/74/142 62/76/142 86/75/142
f 62/76/143 23/150/143 61/67/143
f 86/75/144 61/67/144 8/22/144
f 5/77/145 36/80/145 87/78/145
f 36/80/146 12/152/146 63/81/146
f 87/78/147 63/81/147 23/82/147
f 44/79/148 87/78/148 62/83/148
f 46/85/149 88/89/149 41/86/149
f 17/88/150 64/97/150 88/89/150
f 88/93/151 64/153/151 24/103/151
f 88/93/152 66/102/152 15/61/152
f 47/37/153 89/95/153 45/94/153
f 18/39/154 65/154/154 89/95/154
f 65/104/155 24/103/155 64/153/155
f 89/98/156 64/97/156 17/88/156
f 7/65/157 42/64/157 90/100/157
f 42/64/158 15/61/158 66/102/158
f 90/155/159 66/92/159 24/91/159
f 48/101/160 90/100/160 65/104/160
f 49/106/161 91/112/161 37/53/161
f 19/107/162 67/110/162 91/108/162
f 67/110/163 25/116/163 70/111/163
f 91/108/164 70/111/164 13/121/164
f 50/113/165 92/114/165 67/110/165
f 5/77/166 44/79/166 92/114/166
f 44/79/167 16/84/167 68/115/167
f 92/114/168 68/115/168 25/116/168
f 68/115/169 93/118/169 69/117/169
f 16/84/170 43/119/170 93/118/170
f 43/73/171 4/13/171 45/94/171
f 93/118/172 45/99/172 17/88/172
f 70/111/173 94/122/173 38/120/173
f 25/116/174 69/117/174 94/122/174
f 69/117/175 17/88/175 46/85/175
f 94/122/176 46/85/176 6/87/176
f 31/8/177 95/124/177 29/123/177
f 10/10/178 71/125/178 95/124/178
f 71/125/179 26/132/179 74/126/179
f 95/124/180 74/126/180 9/127/180
f 32/128/181 96/130/181 71/125/181
f 3/129/182 35/72/182 96/130/182
f 35/72/183 12/71/183 72/131/183
f 96/130/184 72/131/184 26/132/184
f 72/131/185 97/134/185 73/133/185
f 12/152/186 36/80/186 97/135/186
f 36/80/187 5/77/187 50/113/187
f 97/135/188 50/113/188 19/107/188
f 74/126/189 98/140/189 30/139/189
f 26/132/190 73/133/190 98/140/190
f 73/156/191 19/107/191 49/109/191
f 98/140/192 49/141/192 2/142/192
