{
	"asset":{
		"generator":"Khronos glTF Blender I/O v4.0.44",
		"version":"2.0"
	},
	"scene":0,
	"scenes":[
		{
			"name":"Scene",
			"nodes":[
				0,
				1,
				2,
				3
			]
		}
	],
	"nodes":[
		{
			"mesh":0,
			"name":"Cube"
		},
		{
			"mesh":1,
			"name":"Cylinder"
		},
		{
			"mesh":2,
			"name":"Cube.001"
		},
		{
			"mesh":3,
			"name":"Cube.002"
		}
	],
	"materials":[
		{
			"doubleSided":true,
			"name":"Material",
			"pbrMetallicRoughness":{
				"baseColorTexture":{
					"index":0
				},
				"metallicFactor":0
			}
		},
		{
			"doubleSided":true,
			"name":"Material.001",
			"pbrMetallicRoughness":{
				"baseColorTexture":{
					"index":1
				},
				"metallicFactor":0
			}
		},
		{
			"doubleSided":true,
			"name":"Material.002",
			"pbrMetallicRoughness":{
				"baseColorTexture":{
					"index":2
				},
				"metallicFactor":0
			}
		},
		{
			"doubleSided":true,
			"name":"Material.004",
			"pbrMetallicRoughness":{
				"baseColorTexture":{
					"index":3
				},
				"metallicFactor":0
			}
		}
	],
	"meshes":[
		{
			"name":"Cube",
			"primitives":[
				{
					"attributes":{
						"POSITION":0,
						"NORMAL":1,
						"TEXCOORD_0":2
					},
					"indices":3,
					"material":0
				}
			]
		},
		{
			"name":"Cylinder",
			"primitives":[
				{
					"attributes":{
						"POSITION":4,
						"NORMAL":5,
						"TEXCOORD_0":6
					},
					"indices":7,
					"material":1
				}
			]
		},
		{
			"name":"Cube.001",
			"primitives":[
				{
					"attributes":{
						"POSITION":8,
						"NORMAL":9,
						"TEXCOORD_0":10
					},
					"indices":11,
					"material":2
				}
			]
		},
		{
			"name":"Cube.002",
			"primitives":[
				{
					"attributes":{
						"POSITION":12,
						"NORMAL":13,
						"TEXCOORD_0":14
					},
					"indices":15,
					"material":3
				}
			]
		}
	],
	"textures":[
		{
			"sampler":0,
			"source":0
		},
		{
			"sampler":0,
			"source":1
		},
		{
			"sampler":0,
			"source":2
		},
		{
			"sampler":0,
			"source":0
		}
	],
	"images":[
		{
			"mimeType":"image/png",
			"name":"tex12.png",
			"uri":"../tex12.png"
		},
		{
			"mimeType":"image/png",
			"name":"tex4.png",
			"uri":"../tex4.png"
		},
		{
			"mimeType":"image/png",
			"name":"tex11.png",
			"uri":"../tex11.png"
		}
	],
	"accessors":[
		{
			"bufferView":0,
			"componentType":5126,
			"count":30,
			"max":[
				2,
				2.5125229358673096,
				0.020000003278255463
			],
			"min":[
				-2,
				0.01252281665802002,
				-0.020000003278255463
			],
			"type":"VEC3"
		},
		{
			"bufferView":1,
			"componentType":5126,
			"count":30,
			"type":"VEC3"
		},
		{
			"bufferView":2,
			"componentType":5126,
			"count":30,
			"type":"VEC2"
		},
		{
			"bufferView":3,
			"componentType":5123,
			"count":54,
			"type":"SCALAR"
		},
		{
			"bufferView":4,
			"componentType":5126,
			"count":76,
			"max":[
				1.1164472103118896,
				2.496612548828125,
				0.08887222409248352
			],
			"min":[
				-1.1164472103118896,
				-0.18489086627960205,
				0.020869100466370583
			],
			"type":"VEC3"
		},
		{
			"bufferView":5,
			"componentType":5126,
			"count":76,
			"type":"VEC3"
		},
		{
			"bufferView":6,
			"componentType":5126,
			"count":76,
			"type":"VEC2"
		},
		{
			"bufferView":7,
			"componentType":5123,
			"count":156,
			"type":"SCALAR"
		},
		{
			"bufferView":8,
			"componentType":5126,
			"count":24,
			"max":[
				0.8205432295799255,
				2.51192569732666,
				0.142093688249588
			],
			"min":[
				-0.8205432295799255,
				2.42446231842041,
				0.024654284119606018
			],
			"type":"VEC3"
		},
		{
			"bufferView":9,
			"componentType":5126,
			"count":24,
			"type":"VEC3"
		},
		{
			"bufferView":10,
			"componentType":5126,
			"count":24,
			"type":"VEC2"
		},
		{
			"bufferView":11,
			"componentType":5123,
			"count":36,
			"type":"SCALAR"
		},
		{
			"bufferView":12,
			"componentType":5126,
			"count":144,
			"max":[
				1.3327909708023071,
				2.5172243118286133,
				0.47415924072265625
			],
			"min":[
				-1.3327909708023071,
				1.110375165939331,
				-0.25846195220947266
			],
			"type":"VEC3"
		},
		{
			"bufferView":13,
			"componentType":5126,
			"count":144,
			"type":"VEC3"
		},
		{
			"bufferView":14,
			"componentType":5126,
			"count":144,
			"type":"VEC2"
		},
		{
			"bufferView":15,
			"componentType":5123,
			"count":216,
			"type":"SCALAR"
		}
	],
	"bufferViews":[
		{
			"buffer":0,
			"byteLength":360,
			"byteOffset":0,
			"target":34962
		},
		{
			"buffer":0,
			"byteLength":360,
			"byteOffset":360,
			"target":34962
		},
		{
			"buffer":0,
			"byteLength":240,
			"byteOffset":720,
			"target":34962
		},
		{
			"buffer":0,
			"byteLength":108,
			"byteOffset":960,
			"target":34963
		},
		{
			"buffer":0,
			"byteLength":912,
			"byteOffset":1068,
			"target":34962
		},
		{
			"buffer":0,
			"byteLength":912,
			"byteOffset":1980,
			"target":34962
		},
		{
			"buffer":0,
			"byteLength":608,
			"byteOffset":2892,
			"target":34962
		},
		{
			"buffer":0,
			"byteLength":312,
			"byteOffset":3500,
			"target":34963
		},
		{
			"buffer":0,
			"byteLength":288,
			"byteOffset":3812,
			"target":34962
		},
		{
			"buffer":0,
			"byteLength":288,
			"byteOffset":4100,
			"target":34962
		},
		{
			"buffer":0,
			"byteLength":192,
			"byteOffset":4388,
			"target":34962
		},
		{
			"buffer":0,
			"byteLength":72,
			"byteOffset":4580,
			"target":34963
		},
		{
			"buffer":0,
			"byteLength":1728,
			"byteOffset":4652,
			"target":34962
		},
		{
			"buffer":0,
			"byteLength":1728,
			"byteOffset":6380,
			"target":34962
		},
		{
			"buffer":0,
			"byteLength":1152,
			"byteOffset":8108,
			"target":34962
		},
		{
			"buffer":0,
			"byteLength":432,
			"byteOffset":9260,
			"target":34963
		}
	],
	"samplers":[
		{
			"magFilter":9728,
			"minFilter":9984
		}
	],
	"buffers":[
		{
			"byteLength":9692,
			"uri":"doorway01.bin"
		}
	]
}
