{
	"asset":{
		"generator":"Khronos glTF Blender I/O v4.0.44",
		"version":"2.0"
	},
	"scene":0,
	"scenes":[
		{
			"name":"Scene",
			"nodes":[
				0,
				1
			]
		}
	],
	"nodes":[
		{
			"mesh":0,
			"name":"pillar"
		},
		{
			"mesh":1,
			"name":"lightpanel"
		}
	],
	"materials":[
		{
			"doubleSided":true,
			"name":"Material.001",
			"pbrMetallicRoughness":{
				"baseColorTexture":{
					"index":0
				},
				"metallicFactor":0
			}
		},
		{
			"doubleSided":true,
			"emissiveFactor":[
				0.009999999776482582,
				0.002687147818505764,
				0
			],
			"name":"light.001",
			"pbrMetallicRoughness":{
				"baseColorFactor":[
					0.41474148631095886,
					0.1800716519355774,
					0,
					1
				],
				"metallicFactor":0.9527559280395508,
				"metallicRoughnessTexture":{
					"index":1
				}
			}
		}
	],
	"meshes":[
		{
			"name":"Cube.006",
			"primitives":[
				{
					"attributes":{
						"POSITION":0,
						"NORMAL":1,
						"TEXCOORD_0":2
					},
					"indices":3,
					"material":0
				}
			]
		},
		{
			"name":"Plane.001",
			"primitives":[
				{
					"attributes":{
						"POSITION":4,
						"NORMAL":5,
						"TEXCOORD_0":6
					},
					"indices":7,
					"material":1
				}
			]
		}
	],
	"textures":[
		{
			"sampler":0,
			"source":0
		},
		{
			"sampler":0,
			"source":1
		}
	],
	"images":[
		{
			"mimeType":"image/png",
			"name":"tex9.png",
			"uri":"../tex9.png"
		},
		{
			"mimeType":"image/png",
			"name":"industrial2.png",
			"uri":"../../industrial2.png"
		}
	],
	"accessors":[
		{
			"bufferView":0,
			"componentType":5126,
			"count":101,
			"max":[
				0.25,
				2.479579210281372,
				0.7261766791343689
			],
			"min":[
				-0.25,
				-0.06597187370061874,
				-0.16900408267974854
			],
			"type":"VEC3"
		},
		{
			"bufferView":1,
			"componentType":5126,
			"count":101,
			"type":"VEC3"
		},
		{
			"bufferView":2,
			"componentType":5126,
			"count":101,
			"type":"VEC2"
		},
		{
			"bufferView":3,
			"componentType":5123,
			"count":201,
			"type":"SCALAR"
		},
		{
			"bufferView":4,
			"componentType":5126,
			"count":4,
			"max":[
				0.22664260864257812,
				1.6649409532546997,
				0.1322018951177597
			],
			"min":[
				-0.22664260864257812,
				0.9350590109825134,
				0.13220174610614777
			],
			"type":"VEC3"
		},
		{
			"bufferView":5,
			"componentType":5126,
			"count":4,
			"type":"VEC3"
		},
		{
			"bufferView":6,
			"componentType":5126,
			"count":4,
			"type":"VEC2"
		},
		{
			"bufferView":7,
			"componentType":5123,
			"count":6,
			"type":"SCALAR"
		}
	],
	"bufferViews":[
		{
			"buffer":0,
			"byteLength":1212,
			"byteOffset":0,
			"target":34962
		},
		{
			"buffer":0,
			"byteLength":1212,
			"byteOffset":1212,
			"target":34962
		},
		{
			"buffer":0,
			"byteLength":808,
			"byteOffset":2424,
			"target":34962
		},
		{
			"buffer":0,
			"byteLength":402,
			"byteOffset":3232,
			"target":34963
		},
		{
			"buffer":0,
			"byteLength":48,
			"byteOffset":3636,
			"target":34962
		},
		{
			"buffer":0,
			"byteLength":48,
			"byteOffset":3684,
			"target":34962
		},
		{
			"buffer":0,
			"byteLength":32,
			"byteOffset":3732,
			"target":34962
		},
		{
			"buffer":0,
			"byteLength":12,
			"byteOffset":3764,
			"target":34963
		}
	],
	"samplers":[
		{
			"magFilter":9728,
			"minFilter":9984
		}
	],
	"buffers":[
		{
			"byteLength":3776,
			"uri":"lightpillar01.bin"
		}
	]
}
