{
	"asset":{
		"generator":"Khronos glTF Blender I/O v4.0.44",
		"version":"2.0"
	},
	"scene":0,
	"scenes":[
		{
			"name":"Scene",
			"nodes":[
				0
			]
		}
	],
	"nodes":[
		{
			"mesh":0,
			"name":"Cylinder"
		}
	],
	"materials":[
		{
			"doubleSided":true,
			"name":"Material",
			"pbrMetallicRoughness":{
				"baseColorTexture":{
					"index":0
				},
				"metallicFactor":0
			}
		},
		{
			"doubleSided":true,
			"name":"Material.001",
			"pbrMetallicRoughness":{
				"baseColorTexture":{
					"index":1
				},
				"metallicFactor":0
			}
		}
	],
	"meshes":[
		{
			"name":"Cylinder",
			"primitives":[
				{
					"attributes":{
						"POSITION":0,
						"NORMAL":1,
						"TEXCOORD_0":2
					},
					"indices":3,
					"material":0
				},
				{
					"attributes":{
						"POSITION":4,
						"NORMAL":5,
						"TEXCOORD_0":6
					},
					"indices":7,
					"material":1
				}
			]
		}
	],
	"textures":[
		{
			"sampler":0,
			"source":0
		},
		{
			"sampler":0,
			"source":1
		}
	],
	"images":[
		{
			"mimeType":"image/png",
			"name":"rocket.png",
			"uri":"../rocket.png"
		},
		{
			"mimeType":"image/png",
			"name":"tex12.png",
			"uri":"../tex12.png"
		}
	],
	"accessors":[
		{
			"bufferView":0,
			"componentType":5126,
			"count":628,
			"max":[
				1.0777369737625122,
				18.63019561767578,
				1.1694490909576416
			],
			"min":[
				-1.0777369737625122,
				-0.11035752296447754,
				-1.1588692665100098
			],
			"type":"VEC3"
		},
		{
			"bufferView":1,
			"componentType":5126,
			"count":628,
			"type":"VEC3"
		},
		{
			"bufferView":2,
			"componentType":5126,
			"count":628,
			"type":"VEC2"
		},
		{
			"bufferView":3,
			"componentType":5123,
			"count":978,
			"type":"SCALAR"
		},
		{
			"bufferView":4,
			"componentType":5126,
			"count":357,
			"max":[
				1.0777369737625122,
				12.562763214111328,
				1.1694490909576416
			],
			"min":[
				-1.0777369737625122,
				-0.23375481367111206,
				-1.0777369737625122
			],
			"type":"VEC3"
		},
		{
			"bufferView":5,
			"componentType":5126,
			"count":357,
			"type":"VEC3"
		},
		{
			"bufferView":6,
			"componentType":5126,
			"count":357,
			"type":"VEC2"
		},
		{
			"bufferView":7,
			"componentType":5123,
			"count":564,
			"type":"SCALAR"
		}
	],
	"bufferViews":[
		{
			"buffer":0,
			"byteLength":7536,
			"byteOffset":0,
			"target":34962
		},
		{
			"buffer":0,
			"byteLength":7536,
			"byteOffset":7536,
			"target":34962
		},
		{
			"buffer":0,
			"byteLength":5024,
			"byteOffset":15072,
			"target":34962
		},
		{
			"buffer":0,
			"byteLength":1956,
			"byteOffset":20096,
			"target":34963
		},
		{
			"buffer":0,
			"byteLength":4284,
			"byteOffset":22052,
			"target":34962
		},
		{
			"buffer":0,
			"byteLength":4284,
			"byteOffset":26336,
			"target":34962
		},
		{
			"buffer":0,
			"byteLength":2856,
			"byteOffset":30620,
			"target":34962
		},
		{
			"buffer":0,
			"byteLength":1128,
			"byteOffset":33476,
			"target":34963
		}
	],
	"samplers":[
		{
			"magFilter":9728,
			"minFilter":9984
		}
	],
	"buffers":[
		{
			"byteLength":34604,
			"uri":"missile.bin"
		}
	]
}
