{
	"asset":{
		"generator":"Khronos glTF Blender I/O v4.0.44",
		"version":"2.0"
	},
	"scene":0,
	"scenes":[
		{
			"name":"Scene",
			"nodes":[
				0
			]
		}
	],
	"nodes":[
		{
			"mesh":0,
			"name":"Cylinder"
		}
	],
	"materials":[
		{
			"doubleSided":true,
			"name":"Material",
			"pbrMetallicRoughness":{
				"baseColorFactor":[
					0,
					0,
					0,
					1
				],
				"metallicFactor":0,
				"metallicRoughnessTexture":{
					"index":0
				}
			}
		}
	],
	"meshes":[
		{
			"name":"Cylinder",
			"primitives":[
				{
					"attributes":{
						"POSITION":0,
						"NORMAL":1,
						"TEXCOORD_0":2
					},
					"indices":3,
					"material":0
				}
			]
		}
	],
	"textures":[
		{
			"sampler":0,
			"source":0
		}
	],
	"images":[
		{
			"mimeType":"image/png",
			"name":"noise3.png",
			"uri":"../noise3.png"
		}
	],
	"accessors":[
		{
			"bufferView":0,
			"componentType":5126,
			"count":148,
			"max":[
				0.1930696666240692,
				0.38683021068573,
				0.22293764352798462
			],
			"min":[
				-0.1930696666240692,
				-0.0010005384683609009,
				-0.22293764352798462
			],
			"type":"VEC3"
		},
		{
			"bufferView":1,
			"componentType":5126,
			"count":148,
			"type":"VEC3"
		},
		{
			"bufferView":2,
			"componentType":5126,
			"count":148,
			"type":"VEC2"
		},
		{
			"bufferView":3,
			"componentType":5123,
			"count":288,
			"type":"SCALAR"
		}
	],
	"bufferViews":[
		{
			"buffer":0,
			"byteLength":1776,
			"byteOffset":0,
			"target":34962
		},
		{
			"buffer":0,
			"byteLength":1776,
			"byteOffset":1776,
			"target":34962
		},
		{
			"buffer":0,
			"byteLength":1184,
			"byteOffset":3552,
			"target":34962
		},
		{
			"buffer":0,
			"byteLength":576,
			"byteOffset":4736,
			"target":34963
		}
	],
	"samplers":[
		{
			"magFilter":9729,
			"minFilter":9987
		}
	],
	"buffers":[
		{
			"byteLength":5312,
			"uri":"reactor%20graphite.bin"
		}
	]
}
