# Blender 4.0.1
# www.blender.org
mtllib television.mtl
o tv
v 0.125126 0.249046 -0.125126
v 0.125126 -0.001206 -0.125126
v 0.125126 0.249046 0.125126
v 0.125126 -0.001206 0.125126
v -0.125126 0.249046 -0.125126
v -0.125126 -0.001206 -0.125126
v -0.125126 0.249046 0.125126
v -0.125126 -0.001206 0.125126
v 0.094357 0.216685 -0.125126
v -0.093781 0.216685 -0.125126
v -0.093781 0.063335 -0.125126
v 0.092937 0.061915 -0.125126
v 0.094357 0.216685 -0.096406
v -0.093781 0.216685 -0.096406
v -0.093781 0.063335 -0.096406
v 0.092937 0.061915 -0.096406
v 0.044333 0.175876 -0.109136
v -0.044133 0.175876 -0.109136
v -0.044133 0.103768 -0.109136
v 0.043665 0.103100 -0.109136
vn -0.0000 1.0000 -0.0000
vn -0.0000 -0.0000 1.0000
vn -1.0000 -0.0000 -0.0000
vn -0.0000 -1.0000 -0.0000
vn 1.0000 -0.0000 -0.0000
vn -0.0000 -0.0000 -1.0000
vn -0.2484 -0.0000 -0.9687
vn -1.0000 0.0092 -0.0000
vn 0.0076 1.0000 -0.0000
vn -0.0023 -0.2978 -0.9546
vn -0.0000 0.2978 -0.9546
vn 0.2484 -0.0023 -0.9687
vt 0.132183 0.733342
vt 0.026479 0.549606
vt 0.132183 0.549606
vt 0.077163 0.819584
vt 0.046154 0.850593
vt 0.046154 0.819584
vt 0.026479 0.733342
vt 0.132183 0.917079
vt 0.026479 0.917079
vt 0.132183 0.365870
vt 0.026479 0.182134
vt 0.132183 0.182134
vt 0.026479 0.365870
vt 0.999900 0.000100
vt 0.128701 0.252280
vt 0.000100 0.000100
vt 0.866641 0.270796
vt 0.671697 0.701736
vt 0.671145 0.427074
vt 0.000100 0.999900
vt 0.874673 0.870614
vt 0.999900 0.999900
vt 0.123028 0.870615
vt 0.874673 0.257952
vt 0.329211 0.424142
vt 0.326083 0.702039
vt 0.134863 0.265224
vt 0.867010 0.859776
vt 0.128986 0.859776
vt 0.077163 0.850593
s 0
usemtl Material
f 5/1/1 3/2/1 1/3/1
f 3/4/2 8/5/2 4/6/2
f 7/7/3 6/8/3 8/9/3
f 2/10/4 8/11/4 6/12/4
f 1/3/5 4/13/5 2/10/5
f 6/14/6 12/15/6 2/16/6
f 15/17/7 18/18/7 19/19/7
f 1/20/6 10/21/6 5/22/6
f 12/15/8 13/23/8 9/23/8
f 10/21/5 15/24/5 11/24/5
f 11/24/9 16/15/9 12/15/9
f 9/23/4 14/21/4 10/21/4
f 20/25/6 18/18/6 17/26/6
f 15/17/10 20/25/10 16/27/10
f 14/28/11 17/26/11 18/18/11
f 16/27/12 17/26/12 13/29/12
f 5/1/1 7/7/1 3/2/1
f 3/4/2 7/30/2 8/5/2
f 7/7/3 5/1/3 6/8/3
f 2/10/4 4/13/4 8/11/4
f 1/3/5 3/2/5 4/13/5
f 6/14/6 5/22/6 11/24/6
f 5/22/6 10/21/6 11/24/6
f 9/23/6 1/20/6 12/15/6
f 1/20/6 2/16/6 12/15/6
f 6/14/6 11/24/6 12/15/6
f 15/17/7 14/28/7 18/18/7
f 1/20/6 9/23/6 10/21/6
f 12/15/8 16/15/8 13/23/8
f 10/21/5 14/21/5 15/24/5
f 11/24/9 15/24/9 16/15/9
f 9/23/4 13/23/4 14/21/4
f 20/25/6 19/19/6 18/18/6
f 15/17/10 19/19/10 20/25/10
f 14/28/11 13/29/11 17/26/11
f 16/27/12 20/25/12 17/26/12
